PathFileType	4	(X/Y/Z)	C:/Users/opensim2020/Desktop/walking_exp_matlab/subject03_walking05_straight_01.trc																																																																																																																																					
DataRate	CameraRate	NumFrames	NumMarkers	Units	OrigDataRate	OrigDataStartFrame	OrigNumFrames																																																																																																																																	
100	100	6	45	mm	100	876	298																																																																																																																																	
Frame#	Time	LFHD			RFHD			LBHD			RBHD			C7			T10			CLAV			STRN			RBAK			LSHO			LUPA			LELB			LFRM			LWRA			LWRB			LFIN			RSHO			RUPA			RELB			RFRM			RWRA			RWRB			RFIN			LASI			RASI			LPSI			RPSI			LTHI			LKNE			LTIB			LANK			LHEE			LTOE			RTHI			RKNE			RTIB			RANK			RHEE			RTOE			*39			*40			*41			*42			*43			*44		
		X1	Y1	Z1	X2	Y2	Z2	X3	Y3	Z3	X4	Y4	Z4	X5	Y5	Z5	X6	Y6	Z6	X7	Y7	Z7	X8	Y8	Z8	X9	Y9	Z9	X10	Y10	Z10	X11	Y11	Z11	X12	Y12	Z12	X13	Y13	Z13	X14	Y14	Z14	X15	Y15	Z15	X16	Y16	Z16	X17	Y17	Z17	X18	Y18	Z18	X19	Y19	Z19	X20	Y20	Z20	X21	Y21	Z21	X22	Y22	Z22	X23	Y23	Z23	X24	Y24	Z24	X25	Y25	Z25	X26	Y26	Z26	X27	Y27	Z27	X28	Y28	Z28	X29	Y29	Z29	X30	Y30	Z30	X31	Y31	Z31	X32	Y32	Z32	X33	Y33	Z33	X34	Y34	Z34	X35	Y35	Z35	X36	Y36	Z36	X37	Y37	Z37	X38	Y38	Z38	X39	Y39	Z39	X40	Y40	Z40	X41	Y41	Z41	X42	Y42	Z42	X43	Y43	Z43	X44	Y44	Z44	X45	Y45	Z45
																																																																																																																																								
150	1.49	81.17275	1625.79211	-1091.89563	56.46416	1633.05481	-960.66193	-44.02266	1577.30737	-1109.505	-63.16946	1584.0968	-979.97327	-78.73775	1420.99609	-1046.30042	-113.17684	1108.44373	-1039.25317	42.36271	1344.22742	-1036.073	86.87012	1179.07104	-1039.72681	-136.24976	1245.75232	-949.66431	8.7776	1379.78674	-1194.84204	8.51029	1181.79822	-1266.60339	19.16664	1059.75085	-1280.078	48.63165	932.3938	-1278.93042	66.82262	814.67267	-1249.1637	49.63627	820.15155	-1302.1499	67.24226	737.99133	-1292.78687	-11.7006	1368.71851	-879.43243	-5.01395	1145.98059	-808.15417	16.82174	1034.31873	-798.65558	42.51758	899.92212	-801.44141	74.52146	807.63263	-843.04565	49.88301	799.8515	-795.1803	76.49636	730.82648	-810.73303	50.85018	944.11554	-1157.10364	52.70239	941.39624	-918.61053	-109.94428	970.05371	-1105.08081	-107.03266	971.97144	-955.6189	-2.98887	642.39258	-1188.94995	5.9384	465.17862	-1145.13293	-38.42606	275.40176	-1145.36731	-46.08672	65.61561	-1101.4386	-85.34798	30.03087	-1065.47205	108.03205	30.29708	-1076.82312	44.4562	644.63098	-872.72839	94.63044	472.09891	-895.15002	-39.71379	338.41611	-887.88739	-194.50008	187.56458	-922.0755	-249.23264	189.89107	-974.85522	-121.8144	65.58032	-934.17596	NaN	NaN	NaN	NaN	NaN	NaN	NaN	NaN	NaN	NaN	NaN	NaN	NaN	NaN	NaN	NaN	NaN	NaN
151	1.5	90.82316	1625.76074	-1091.76099	65.99518	1632.74805	-960.53137	-34.5567	1577.8866	-1109.57324	-53.73515	1584.4248	-979.96539	-70.02862	1421.26331	-1046.86865	-104.25925	1108.56799	-1039.9082	51.13436	1344.32849	-1036.47205	95.77851	1179.30786	-1040.51013	-127.69215	1245.84998	-950.62964	17.75175	1380.55847	-1195.17651	20.39606	1183.17358	-1267.56433	33.64941	1061.30371	-1280.92871	65.8801	934.70941	-1279.72217	86.32076	817.40057	-1249.98743	69.70953	822.63379	-1303.15674	90.41802	741.42896	-1294.21838	-3.43217	1368.78857	-879.96991	1.72973	1145.95178	-808.89172	22.79604	1034.21033	-799.22925	47.62991	899.58136	-801.49432	79.77272	807.08899	-842.7948	54.32379	799.54559	-795.40234	80.91094	730.52942	-810.19568	59.44193	944.047	-1158.11084	62.0704	941.99396	-919.53027	-101.13152	970.16241	-1105.47217	-97.76385	972.30646	-956.03894	3.17819	641.92041	-1189.56958	10.68044	464.97568	-1145.57422	-35.7575	275.58377	-1145.64233	-45.91659	65.80795	-1101.52417	-85.14052	30.09875	-1065.54224	108.09163	30.20569	-1076.74414	57.98665	645.65302	-874.42511	112.13458	474.48868	-897.30505	-18.42601	336.73083	-889.77667	-169.19479	181.78438	-924.16968	-224.56897	181.92755	-976.56342	-91.08025	63.66839	-936.98767	NaN	NaN	NaN	NaN	NaN	NaN	NaN	NaN	NaN	NaN	NaN	NaN	NaN	NaN	NaN	NaN	NaN	NaN
152	1.51	100.57011	1625.60803	-1091.52039	75.64099	1632.31873	-960.24982	-25.06531	1578.45386	-1109.58423	-44.37252	1584.70911	-980.00861	-61.12103	1421.28162	-1047.47815	-95.3396	1108.55859	-1040.59521	59.97247	1344.39331	-1036.87207	104.79607	1179.4624	-1041.23718	-118.91523	1245.81213	-951.53613	26.74179	1381.20813	-1195.46899	31.78934	1184.44482	-1268.42529	47.92633	1062.9563	-1281.86121	83.03755	937.18506	-1280.54858	106.11228	820.51617	-1250.80457	89.80344	825.34113	-1304.0293	113.5245	745.28778	-1295.51392	4.71497	1368.76746	-880.44342	8.43143	1145.87842	-809.52991	28.62475	1034.03625	-799.65192	52.68334	899.26642	-801.79596	85.07803	806.66205	-842.44861	58.67503	799.16583	-795.55554	85.33447	730.17529	-809.52728	68.06924	943.86078	-1158.89783	71.57368	942.67548	-920.73163	-92.38113	970.2428	-1105.82751	-88.50583	972.55676	-956.40424	9.32288	641.86432	-1190.02295	15.40043	464.66229	-1145.97791	-33.09176	275.74057	-1145.83289	-45.68857	66.08826	-1101.54834	-85.30731	30.57718	-1065.3606	108.10448	30.24568	-1076.89783	72.39427	647.55835	-874.61646	129.07875	476.85016	-899.37665	2.78011	334.75552	-891.75153	-143.28619	175.00478	-926.50348	-199.03967	173.06151	-978.43103	-59.55891	61.32451	-940.13794	NaN	NaN	NaN	NaN	NaN	NaN	NaN	NaN	NaN	NaN	NaN	NaN	NaN	NaN	NaN	NaN	NaN	NaN
153	1.52	110.30367	1625.40186	-1091.23853	85.27697	1631.77148	-959.98688	-15.56584	1578.96619	-1109.61145	-34.96512	1584.94067	-980.00928	-52.2793	1421.1936	-1047.93457	-86.46758	1108.50854	-1041.25745	68.81827	1344.3772	-1037.27844	113.63002	1179.51941	-1041.96741	-110.26045	1245.67249	-952.42126	35.68844	1381.75354	-1195.70459	43.341	1185.60583	-1269.61511	61.9343	1064.54956	-1282.93408	100.12503	939.77533	-1281.41394	125.85648	823.63196	-1251.50476	109.84438	828.23486	-1304.83057	136.34145	749.26801	-1296.61157	13.05235	1368.65723	-880.91638	15.29456	1145.70215	-810.06805	34.53008	1033.74365	-799.91833	57.83166	898.87201	-801.94904	90.4917	806.13904	-841.97943	63.09195	798.74713	-795.66779	89.8304	729.72382	-808.88159	77.07816	943.76733	-1159.61487	80.9452	942.95184	-921.63751	-83.56955	970.01935	-1106.11475	-79.2366	972.57043	-956.71527	15.33254	641.63202	-1191.01575	20.14515	464.4173	-1146.26392	-30.48054	275.86313	-1145.9812	-45.57658	66.39333	-1101.5061	-85.3354	30.99964	-1065.22717	108.2554	30.16278	-1076.86938	85.65359	648.7121	-875.54749	145.72873	479.23209	-901.31604	23.87034	332.60098	-893.79987	-116.53341	167.69655	-928.95544	-172.49147	163.33305	-980.58917	-27.26429	58.78596	-943.37799	NaN	NaN	NaN	NaN	NaN	NaN	NaN	NaN	NaN	NaN	NaN	NaN	NaN	NaN	NaN	NaN	NaN	NaN
154	1.53	120.06642	1625.06384	-1090.93567	94.99993	1631.14807	-959.69409	-6.0506	1579.43201	-1109.55481	-25.52697	1584.97278	-979.9472	-43.45506	1421.10352	-1048.37769	-77.47626	1108.35913	-1041.89905	77.70747	1344.27063	-1037.67139	122.52689	1179.45886	-1042.68762	-101.56145	1245.47241	-953.26801	44.60665	1382.18945	-1195.95862	54.43754	1186.84521	-1270.40417	75.71194	1066.14221	-1284.20984	117.12978	942.38696	-1282.30396	145.78508	826.97241	-1252.00513	130.04781	831.43201	-1305.78442	158.9558	753.31384	-1297.55103	21.3903	1368.38257	-881.41284	22.23988	1145.40955	-810.57007	40.51934	1033.3429	-800.08893	63.05536	898.3277	-801.92365	96.08566	805.50916	-841.36499	67.6967	798.19495	-795.73566	94.41782	729.09418	-808.35248	85.30859	943.58899	-1160.20117	90.28254	942.95599	-922.41974	-74.94521	969.85907	-1106.3053	-70.01269	972.50269	-956.98987	21.94763	641.05719	-1191.38696	24.86244	464.04681	-1146.59094	-27.80201	276.02725	-1146.04138	-45.30377	66.65643	-1101.34119	-84.98225	31.22413	-1065.08264	108.21998	29.937	-1076.90771	98.67955	650.1358	-876.44324	161.60292	481.50125	-903.15454	44.95591	330.20059	-895.95886	-88.82249	160.03741	-931.44666	-144.99141	152.93698	-982.73804	5.7096	56.06154	-946.94055	NaN	NaN	NaN	NaN	NaN	NaN	NaN	NaN	NaN	NaN	NaN	NaN	NaN	NaN	NaN	NaN	NaN	NaN
155	1.54	129.89705	1624.61084	-1090.5343	104.72379	1630.36719	-959.33197	3.50287	1579.85059	-1109.52417	-16.03637	1585.09229	-979.89697	-34.54177	1420.94531	-1048.77209	-68.62897	1108.15942	-1042.59363	86.57848	1344.03979	-1038.04321	131.57712	1179.2926	-1043.38159	-92.84255	1245.10388	-954.13062	53.56705	1382.43506	-1196.18225	65.62843	1187.88428	-1271.42981	89.21446	1067.60034	-1285.45422	133.95134	945.01953	-1283.28369	165.87421	830.53802	-1252.9054	149.88736	834.38904	-1306.20764	181.23221	757.41357	-1298.27466	29.90056	1367.88342	-881.79053	29.18312	1145.00867	-811.0163	46.57076	1032.85803	-800.26337	68.4817	897.74652	-801.88361	101.8338	804.79834	-840.77911	72.48235	797.53632	-795.78583	99.07507	728.29956	-808.03589	93.8169	943.13153	-1160.9209	99.57095	942.83533	-923.16937	-66.33129	969.54767	-1106.4303	-60.85714	972.25745	-957.23981	28.48802	640.7699	-1191.45654	29.50302	463.73294	-1146.85925	-25.19244	276.19543	-1146.05396	-44.98821	66.97435	-1101.1748	-84.60595	31.60142	-1065.02905	108.3577	29.86913	-1076.92737	111.41652	651.2384	-877.23151	176.80861	483.61578	-904.84442	65.82392	327.47879	-898.03735	-60.66409	151.60837	-934.31842	-116.61938	141.99074	-985.48462	39.41942	53.63565	-950.14172	NaN	NaN	NaN	NaN	NaN	NaN	NaN	NaN	NaN	NaN	NaN	NaN	NaN	NaN	NaN	NaN	NaN	NaN
